<svg width="38" height="38" viewBox="0 0 38 38" fill="none" xmlns="http://www.w3.org/2000/svg">
<path d="M6.29719 15.5803C6.36088 14.7868 6.72114 14.0463 7.30621 13.5064C7.89128 12.9665 8.65825 12.6668 9.45436 12.667H28.5462C29.3423 12.6668 30.1093 12.9665 30.6943 13.5064C31.2794 14.0463 31.6397 14.7868 31.7034 15.5803L32.9748 31.4137C33.0097 31.8494 32.9541 32.2876 32.8114 32.7008C32.6687 33.114 32.442 33.4931 32.1456 33.8144C31.8492 34.1357 31.4894 34.3921 31.0891 34.5675C30.6887 34.7429 30.2563 34.8335 29.8192 34.8337H8.18136C7.74423 34.8335 7.31187 34.7429 6.91149 34.5675C6.51111 34.3921 6.15138 34.1357 5.85496 33.8144C5.55854 33.4931 5.33183 33.114 5.18913 32.7008C5.04642 32.2876 4.9908 31.8494 5.02577 31.4137L6.29719 15.5803V15.5803Z" stroke="#111111" stroke-width="2" stroke-linecap="round" stroke-linejoin="round"/>
<path d="M25.3346 17.417V9.50033C25.3346 7.82062 24.6674 6.20971 23.4796 5.02198C22.2919 3.83425 20.681 3.16699 19.0013 3.16699C17.3216 3.16699 15.7107 3.83425 14.523 5.02198C13.3352 6.20971 12.668 7.82062 12.668 9.50033V17.417" stroke="#111111" stroke-width="2" stroke-linecap="round" stroke-linejoin="round"/>
</svg>
