<svg width="38" height="38" viewBox="0 0 38 38" fill="none" xmlns="http://www.w3.org/2000/svg">
<path d="M30.0833 12.667H7.91667C6.16776 12.667 4.75 14.0848 4.75 15.8337V31.667C4.75 33.4159 6.16776 34.8337 7.91667 34.8337H30.0833C31.8322 34.8337 33.25 33.4159 33.25 31.667V15.8337C33.25 14.0848 31.8322 12.667 30.0833 12.667Z" stroke="#111111" stroke-width="2" stroke-linecap="round" stroke-linejoin="round"/>
<path d="M19 7.917C19 6.97753 18.7214 6.05917 18.1995 5.27804C17.6775 4.4969 16.9357 3.88808 16.0677 3.52857C15.1998 3.16905 14.2447 3.07498 13.3233 3.25826C12.4019 3.44154 11.5555 3.89394 10.8912 4.55824C10.2269 5.22254 9.77455 6.06891 9.59127 6.99032C9.40799 7.91173 9.50206 8.86679 9.86157 9.73474C10.2211 10.6027 10.8299 11.3445 11.611 11.8665C12.3922 12.3884 13.3105 12.667 14.25 12.667M19 7.917C19 6.97753 19.2786 6.05917 19.8005 5.27804C20.3225 4.4969 21.0643 3.88808 21.9323 3.52857C22.8002 3.16905 23.7553 3.07498 24.6767 3.25826C25.5981 3.44154 26.4445 3.89394 27.1088 4.55824C27.7731 5.22254 28.2255 6.06891 28.4087 6.99032C28.592 7.91173 28.4979 8.86679 28.1384 9.73474C27.7789 10.6027 27.1701 11.3445 26.389 11.8665C25.6078 12.3884 24.6895 12.667 23.75 12.667M19 7.917V34.8337M33.25 23.7503H4.75" stroke="#111111" stroke-width="2" stroke-linecap="round" stroke-linejoin="round"/>
</svg>
