<svg width="22" height="23" viewBox="0 0 22 23" fill="none" xmlns="http://www.w3.org/2000/svg">
<path d="M11 3.9375C8.34969 3.9375 6.1875 6.09969 6.1875 8.75C6.1875 10.4069 7.03312 11.8781 8.31462 12.7464C5.86231 13.7983 4.125 16.2321 4.125 19.0625H5.5C5.5 16.0169 7.95438 13.5625 11 13.5625C14.0456 13.5625 16.5 16.0169 16.5 19.0625H17.875C17.875 16.2321 16.1377 13.799 13.6854 12.7458C14.3394 12.3042 14.8753 11.7091 15.2461 11.0126C15.617 10.316 15.8114 9.53913 15.8125 8.75C15.8125 6.09969 13.6503 3.9375 11 3.9375ZM11 5.3125C12.9064 5.3125 14.4375 6.84356 14.4375 8.75C14.4375 10.6564 12.9064 12.1875 11 12.1875C9.09356 12.1875 7.5625 10.6564 7.5625 8.75C7.5625 6.84356 9.09356 5.3125 11 5.3125Z" fill="#111111"/>
</svg>
